<svg width="19.485352" height="17.200195" viewBox="0 0 19.4854 17.2002" fill="none" xmlns="http://www.w3.org/2000/svg" xmlns:xlink="http://www.w3.org/1999/xlink">
	<desc>
			Created with Pixso.
	</desc>
	<defs/>
	<path id="Vector" d="M5.97949 0.935059C6.19336 1.14893 6.31348 1.43994 6.31348 1.74316L6.31348 4.02881C6.31348 4.33154 6.19336 4.62256 5.97949 4.83691C5.76465 5.05127 5.47461 5.17139 5.1709 5.17139C4.86816 5.17139 4.57715 5.05127 4.36328 4.83691C4.14844 4.62256 4.02832 4.33154 4.02832 4.02881L4.02832 1.74316C4.02832 1.43994 4.14844 1.14893 4.36328 0.935059C4.57715 0.720703 4.86816 0.600098 5.1709 0.600098C5.47461 0.600098 5.76465 0.720703 5.97949 0.935059ZM18.8857 2.88574L6.31348 2.88574M4.02832 2.88574L0.599609 2.88574M5.97949 12.3633C6.19336 12.5776 6.31348 12.8687 6.31348 13.1714L6.31348 15.457C6.31348 15.7603 6.19336 16.0513 5.97949 16.2651C5.76465 16.4795 5.47461 16.6001 5.1709 16.6001C4.86816 16.6001 4.57715 16.4795 4.36328 16.2651C4.14844 16.0513 4.02832 15.7603 4.02832 15.457L4.02832 13.1714C4.02832 12.8687 4.14844 12.5776 4.36328 12.3633C4.57715 12.1489 4.86816 12.0288 5.1709 12.0288C5.47461 12.0288 5.76465 12.1489 5.97949 12.3633ZM18.8857 14.3145L6.31348 14.3145M4.02832 14.3145L0.599609 14.3145M15.1221 6.64893C15.3359 6.86328 15.457 7.1543 15.457 7.45703L15.457 9.74316C15.457 10.0459 15.3359 10.3369 15.1221 10.5513C14.9072 10.7656 14.6172 10.8857 14.3135 10.8857C14.0107 10.8857 13.7197 10.7656 13.5059 10.5513C13.291 10.3369 13.1709 10.0459 13.1709 9.74316L13.1709 7.45703C13.1709 7.1543 13.291 6.86328 13.5059 6.64893C13.7197 6.43457 14.0107 6.31445 14.3135 6.31445C14.6172 6.31445 14.9072 6.43457 15.1221 6.64893ZM13.1709 8.6001L0.599609 8.6001M18.8857 8.6001L15.457 8.6001" stroke="#262626" stroke-opacity="1.000000" stroke-width="1.200000" stroke-linejoin="round"/>
</svg>
