<svg width="150.000000" height="68.000000" viewBox="0 0 150 68" fill="none" xmlns="http://www.w3.org/2000/svg" xmlns:xlink="http://www.w3.org/1999/xlink">
	<desc>
			Created with Pixso.
	</desc>
	<defs>
		<clipPath id="clip4_116">
			<rect id="system-uicons:filtering" width="24.000000" height="24.000000" transform="translate(116.000000 22.000000)" fill="white" fill-opacity="0"/>
		</clipPath>
	</defs>
	<rect id="Frame 190" width="149.800003" height="67.800003" transform="translate(0.100000 0.100000)" fill="#FFFFFF" fill-opacity="1.000000"/>
	<path id="Фильтры" d="M15.4102 17.75C12.8164 17.75 10.9531 19.6367 10.9531 22.3633C10.9531 25.0898 12.8164 26.9531 15.4102 26.9531L15.6367 26.9531L15.6367 28.4766L17.0469 28.4766L17.0469 26.9531L17.25 26.9531C19.8398 26.9531 21.7031 25.0664 21.7031 22.3398C21.7031 19.6133 19.8398 17.75 17.25 17.75L17.0469 17.75L17.0469 16.1602L15.6367 16.1602L15.6367 17.75L15.4102 17.75ZM15.4102 19L15.6367 19L15.6367 25.7031L15.4102 25.7031C13.4336 25.7031 12.3633 24.3867 12.3633 22.3633C12.3633 20.3164 13.4336 19 15.4102 19ZM17.0469 19L17.25 19C19.2266 19 20.2969 20.3164 20.2969 22.3398C20.2969 24.3867 19.2266 25.7031 17.25 25.7031L17.0469 25.7031L17.0469 19ZM25.2255 26.0234L25.2255 19.2734L23.8857 19.2734L23.8857 28L25.456 28L29.6357 21.25L29.6357 28L30.9755 28L30.9755 19.2734L29.4325 19.2734L25.2255 26.0234ZM32.6577 28L33.1147 28C35.0444 28 35.603 26.5 35.728 23.6367L35.8647 20.5234L39.0678 20.5234L39.0678 28L40.4077 28L40.4077 19.2734L34.5913 19.2734L34.4311 23.1367C34.3178 26.0664 34.021 26.75 32.978 26.75L32.6577 26.75L32.6577 28ZM44.2028 22.4336L44.2028 19.2734L42.8629 19.2734L42.8629 28L46.5231 28C48.57 28 49.6832 26.75 49.6832 25.1836C49.6832 23.5898 48.57 22.4336 46.5231 22.4336L44.2028 22.4336ZM44.2028 23.6836L46.5231 23.6836C47.5856 23.6836 48.3395 24.3281 48.3395 25.25C48.3395 26.1289 47.5856 26.75 46.5231 26.75L44.2028 26.75L44.2028 23.6836ZM50.3175 20.5234L53.2042 20.5234L53.2042 28L54.544 28L54.544 20.5234L57.4073 20.5234L57.4073 19.2734L50.3175 19.2734L50.3175 20.5234ZM59.3629 31.2734L60.7028 31.2734L60.7028 26.6602L60.82 26.6602C61.1129 27.1367 61.6832 28.1836 63.3629 28.1836C65.5465 28.1836 67.07 26.4336 67.07 23.6602C67.07 20.9102 65.5465 19.1602 63.3395 19.1602C61.6364 19.1602 61.1129 20.2031 60.82 20.6602L60.6598 20.6602L60.6598 19.2734L59.3629 19.2734L59.3629 31.2734ZM60.6832 23.6367C60.6832 21.6836 61.5465 20.3633 63.1832 20.3633C64.8864 20.3633 65.7262 21.7969 65.7262 23.6367C65.7262 25.5 64.8629 26.9766 63.1832 26.9766C61.57 26.9766 60.6832 25.6133 60.6832 23.6367ZM12.5664 46.4336L12.5664 43.2734L11.2266 43.2734L11.2266 52L14.8867 52C16.9336 52 18.0469 50.75 18.0469 49.1836C18.0469 47.5898 16.9336 46.4336 14.8867 46.4336L12.5664 46.4336ZM19.4336 52L20.7734 52L20.7734 43.2734L19.4336 43.2734L19.4336 52ZM12.5664 47.6836L14.8867 47.6836C15.9492 47.6836 16.7031 48.3281 16.7031 49.25C16.7031 50.1289 15.9492 50.75 14.8867 50.75L12.5664 50.75L12.5664 47.6836Z" fill="#262626" fill-opacity="1.000000" fill-rule="evenodd"/>
	<rect id="system-uicons:filtering" width="24.000000" height="24.000000" transform="translate(116.000000 22.000000)" fill="#FFFFFF" fill-opacity="0"/>
	<g clip-path="url(#clip4_116)">
		<path id="Vector" d="M124.237 26.9062C124.451 27.1201 124.571 27.4111 124.571 27.7144L124.571 30C124.571 30.3027 124.451 30.5938 124.237 30.8081C124.022 31.0225 123.732 31.1426 123.429 31.1426C123.126 31.1426 122.835 31.0225 122.621 30.8081C122.406 30.5938 122.286 30.3027 122.286 30L122.286 27.7144C122.286 27.4111 122.406 27.1201 122.621 26.9062C122.835 26.6919 123.126 26.5713 123.429 26.5713C123.732 26.5713 124.022 26.6919 124.237 26.9062ZM137.144 28.8569L124.571 28.8569M122.286 28.8569L118.857 28.8569M124.237 38.3345C124.451 38.5488 124.571 38.8398 124.571 39.1426L124.571 41.4282C124.571 41.7314 124.451 42.0225 124.237 42.2363C124.022 42.4507 123.732 42.5713 123.429 42.5713C123.126 42.5713 122.835 42.4507 122.621 42.2363C122.406 42.0225 122.286 41.7314 122.286 41.4282L122.286 39.1426C122.286 38.8398 122.406 38.5488 122.621 38.3345C122.835 38.1201 123.126 38 123.429 38C123.732 38 124.022 38.1201 124.237 38.3345ZM137.144 40.2856L124.571 40.2856M122.286 40.2856L118.857 40.2856M133.38 32.6201C133.594 32.8345 133.715 33.1255 133.715 33.4282L133.715 35.7144C133.715 36.0171 133.594 36.3081 133.38 36.5225C133.165 36.7368 132.875 36.8569 132.571 36.8569C132.269 36.8569 131.978 36.7368 131.764 36.5225C131.549 36.3081 131.429 36.0171 131.429 35.7144L131.429 33.4282C131.429 33.1255 131.549 32.8345 131.764 32.6201C131.978 32.4058 132.269 32.2856 132.571 32.2856C132.875 32.2856 133.165 32.4058 133.38 32.6201ZM131.429 34.5713L118.857 34.5713M137.144 34.5713L133.715 34.5713" stroke="#262626" stroke-opacity="1.000000" stroke-width="1.200000" stroke-linejoin="round"/>
	</g>
	<rect id="Frame 190" width="149.800003" height="67.800003" transform="translate(0.100000 0.100000)" stroke="#000000" stroke-opacity="1.000000" stroke-width="0.200000"/>
</svg>
