<svg width="44" height="44" viewBox="0 0 44 44" fill="none" xmlns="http://www.w3.org/2000/svg">
<path d="M26.667 16.6667H28.0003M18.0003 12.6667H26.0003C28.9458 12.6667 31.3337 15.0546 31.3337 18.0001V26.0001C31.3337 28.9456 28.9458 31.3334 26.0003 31.3334H18.0003C15.0548 31.3334 12.667 28.9456 12.667 26.0001V18.0001C12.667 15.0546 15.0548 12.6667 18.0003 12.6667ZM22.0003 26.0001C19.7912 26.0001 18.0003 24.2092 18.0003 22.0001C18.0003 19.7909 19.7912 18.0001 22.0003 18.0001C24.2095 18.0001 26.0003 19.7909 26.0003 22.0001C26.0003 24.2092 24.2095 26.0001 22.0003 26.0001Z" stroke="black"/>
</svg>
