<svg width="44" height="44" viewBox="0 0 44 44" fill="none" xmlns="http://www.w3.org/2000/svg">
<path d="M14.5334 27.6006L14.9806 27.8242L15.1189 27.5476L14.9331 27.3003L14.5334 27.6006ZM16.3998 29.467L16.7001 29.0673L16.4528 28.8815L16.1762 29.0198L16.3998 29.467ZM12.667 31.3334L12.2198 31.1098C12.1235 31.3023 12.1613 31.5348 12.3134 31.687C12.4656 31.8391 12.6981 31.8769 12.8906 31.7806L12.667 31.3334ZM18.0003 18.0001L17.723 17.5841C17.5839 17.6768 17.5003 17.8329 17.5003 18.0001H18.0003ZM26.0003 26.0001V26.5001C26.1675 26.5001 26.3236 26.4165 26.4163 26.2774L26.0003 26.0001ZM20.3393 18.7008L20.8325 18.6186L20.3393 18.7008ZM20.5253 19.8164L20.0321 19.8986L20.5253 19.8164ZM19.9497 21.145L20.227 21.561L19.9497 21.145ZM25.2996 23.6611L25.3818 23.1679H25.3818L25.2996 23.6611ZM24.184 23.4751L24.1018 23.9683V23.9683L24.184 23.4751ZM22.8554 24.0507L22.4394 23.7734L22.8554 24.0507ZM12.167 22.0001C12.167 24.2135 12.8989 26.2573 14.1336 27.9009L14.9331 27.3003C13.824 25.8239 13.167 23.9895 13.167 22.0001H12.167ZM22.0003 12.1667C16.5695 12.1667 12.167 16.5693 12.167 22.0001H13.167C13.167 17.1216 17.1218 13.1667 22.0003 13.1667V12.1667ZM31.8337 22.0001C31.8337 16.5693 27.4311 12.1667 22.0003 12.1667V13.1667C26.8788 13.1667 30.8337 17.1216 30.8337 22.0001H31.8337ZM22.0003 31.8334C27.4311 31.8334 31.8337 27.4309 31.8337 22.0001H30.8337C30.8337 26.8786 26.8788 30.8334 22.0003 30.8334V31.8334ZM16.0995 29.8668C17.7431 31.1015 19.7869 31.8334 22.0003 31.8334V30.8334C20.0109 30.8334 18.1765 30.1764 16.7001 29.0673L16.0995 29.8668ZM12.8906 31.7806L16.6234 29.9142L16.1762 29.0198L12.4434 30.8862L12.8906 31.7806ZM14.0862 27.377L12.2198 31.1098L13.1142 31.557L14.9806 27.8242L14.0862 27.377ZM17.5003 18.0001V19.3334H18.5003V18.0001H17.5003ZM24.667 26.5001H26.0003V25.5001H24.667V26.5001ZM17.5003 19.3334C17.5003 23.2915 20.709 26.5001 24.667 26.5001V25.5001C21.2612 25.5001 18.5003 22.7392 18.5003 19.3334H17.5003ZM18.2777 18.4161L18.5619 18.2266L18.0072 17.3946L17.723 17.5841L18.2777 18.4161ZM19.8461 18.783L20.0321 19.8986L21.0185 19.7342L20.8325 18.6186L19.8461 18.783ZM19.6723 20.7289L18.3896 21.5841L18.9443 22.4161L20.227 21.561L19.6723 20.7289ZM20.0321 19.8986C20.086 20.222 19.9452 20.547 19.6723 20.7289L20.227 21.561C20.8273 21.1608 21.1371 20.4458 21.0185 19.7342L20.0321 19.8986ZM18.5619 18.2266C19.065 17.8912 19.7467 18.1865 19.8461 18.783L20.8325 18.6186C20.6138 17.3063 19.1141 16.6566 18.0072 17.3946L18.5619 18.2266ZM26.4163 26.2774L26.6058 25.9932L25.7738 25.4385L25.5843 25.7227L26.4163 26.2774ZM25.3818 23.1679L24.2662 22.9819L24.1018 23.9683L25.2174 24.1543L25.3818 23.1679ZM22.4394 23.7734L21.5843 25.0561L22.4164 25.6108L23.2715 24.3281L22.4394 23.7734ZM24.2662 22.9819C23.5546 22.8633 22.8396 23.1731 22.4394 23.7734L23.2715 24.3281C23.4534 24.0552 23.7784 23.9144 24.1018 23.9683L24.2662 22.9819ZM26.6058 25.9932C27.3438 24.8863 26.6941 23.3866 25.3818 23.1679L25.2174 24.1543C25.8139 24.2537 26.1092 24.9354 25.7738 25.4385L26.6058 25.9932Z" fill="black"/>
</svg>
