<svg width="252.675781" height="55.555664" viewBox="0 0 252.676 55.5557" fill="none" xmlns="http://www.w3.org/2000/svg" xmlns:xlink="http://www.w3.org/1999/xlink">
	<desc>
			Created with Pixso.
	</desc>
	<defs/>
	<path id="Rectangle 330 (Traced)" d="M92.6689 27.7778L92.6689 55.5557L120.446 55.5557L148.225 55.5557L148.225 27.7778L148.225 0L120.446 0L92.6689 0L92.6689 27.7778ZM134.336 27.7778L134.336 41.6665L120.446 41.6665L106.558 41.6665L106.558 27.7778L106.558 13.8887L120.446 13.8887L134.336 13.8887L134.336 27.7778Z" fill="#5A8E65" fill-opacity="1.000000" fill-rule="evenodd"/>
	<path id="BRANDNAME (Traced)" d="M1 27.9053L1 39.1304L7.91406 39.1304L14.8291 39.1304L15.5625 39.0225L16.2969 38.9141L17.042 38.6675L17.7881 38.4209L18.3867 38.0679L18.9863 37.7148L19.5322 37.1968L20.0781 36.6787L20.3721 36.2642L20.666 35.8501L20.9424 35.2974L21.2178 34.7451L21.3955 34.1841L21.5723 33.6226L21.6943 33.0098L21.8154 32.397L21.8154 31.1196L21.8145 29.8418L21.6895 29.1514L21.5645 28.4604L21.3955 27.8735L21.2256 27.2866L20.9209 26.6406L20.6152 25.9951L20.3076 25.564L20 25.1323L19.4775 24.645L18.9551 24.1572L18.3076 23.8359L17.6602 23.5146L17.0596 23.3931L16.46 23.2715L16.7354 23.189L17.0117 23.106L17.415 22.8027L17.8184 22.4995L18.0322 22.1997L18.2461 21.8999L18.3916 21.6133L18.5371 21.3262L18.5986 20.9331L18.6602 20.5396L18.6055 19.9902L18.5498 19.4409L18.4375 19.1035L18.3262 18.7666L18.0596 18.3545L17.793 17.9424L17.4219 17.6616L17.0508 17.3818L16.6475 17.2031L16.2432 17.0244L15.6836 16.8755L15.123 16.7261L8.06152 16.7036L1 16.6802L1 27.9053ZM26 27.9062L26 39.1304L27.623 39.1304L29.2451 39.1304L29.2451 31.6021L29.2451 24.0742L32.6387 24.0918L36.0312 24.1099L40.3457 31.6201L44.6602 39.1304L46.5244 39.1304L48.3896 39.1304L48.3535 39.0347L48.3164 38.9395L44.0293 31.5342L39.7432 24.1284L39.7432 24.1021L39.7432 24.0752L41.2451 24.0747L42.7471 24.0747L43.4033 23.9751L44.0586 23.8755L44.5078 23.7363L44.957 23.5972L45.3711 23.3521L45.7852 23.1069L46.0547 22.814L46.3232 22.5215L46.5195 22.1069L46.7148 21.6919L46.7852 21.3203L46.8555 20.9487L46.8545 20.5264L46.8535 20.1045L46.7568 19.6465L46.6592 19.1885L46.4883 18.8521L46.3174 18.5161L46.0996 18.2422L45.8809 17.9688L45.5225 17.6968L45.1641 17.4248L44.7305 17.2266L44.2969 17.0283L43.7295 16.8765L43.1611 16.7246L34.5801 16.7031L26 16.6816L26 27.9062ZM58.1797 27.7456L51.7939 38.8057L51.7051 38.9683L51.6162 39.1304L52.1953 39.1304L52.7744 39.1304L55.2832 34.814L57.791 30.498L63.4688 30.498L69.1475 30.498L71.6309 34.7969L74.1152 39.0957L75.9961 39.1143L77.876 39.1328L77.8525 39.0684L77.8291 39.0044L71.3721 27.8452L64.915 16.686L64.7402 16.686L64.5664 16.686L58.1797 27.7456ZM81.3857 27.9082L81.3857 39.1304L81.9043 39.1304L82.4219 39.1304L82.4219 28.3916L82.4219 17.6528L82.8672 17.6528L83.3135 17.6528L92.3369 28.3916L101.36 39.1304L102.664 39.1304L103.969 39.1304L103.969 27.9082L103.969 16.686L103.45 16.686L102.933 16.686L102.933 26.1816L102.933 35.6772L102.802 35.6772L102.672 35.6772L94.7139 26.1816L86.7559 16.686L84.0713 16.686L81.3857 16.686L81.3857 27.9082ZM110.046 27.9043L110.046 39.1304L115.45 39.1304L120.854 39.1304L121.73 39.0278L122.607 38.9253L123.284 38.7808L123.962 38.6362L124.687 38.4282L125.412 38.2202L126.152 37.9175L126.893 37.6152L127.257 37.4307L127.622 37.2461L128.14 36.9331L128.657 36.6206L129.164 36.248L129.67 35.875L130.227 35.3447L130.782 34.814L131.228 34.2446L131.673 33.6748L132 33.105L132.327 32.5352L132.577 31.9482L132.828 31.3613L132.998 30.7051L133.167 30.0488L133.252 29.3696L133.338 28.6904L133.299 27.5054L133.26 26.3198L133.116 25.6499L132.973 24.98L132.758 24.3726L132.544 23.7646L132.267 23.2119L131.989 22.6597L131.567 22.0381L131.146 21.4165L130.385 20.6567L129.624 19.897L128.969 19.4302L128.312 18.9634L127.207 18.4136L126.103 17.8638L125.377 17.6152L124.652 17.3667L123.823 17.1689L122.994 16.9707L122.27 16.8501L121.544 16.729L115.795 16.7036L110.046 16.6787L110.046 27.9043ZM136.772 27.9082L136.772 39.1304L137.29 39.1304L137.808 39.1304L137.808 28.3882L137.808 17.6465L138.27 17.667L138.73 17.6875L147.726 28.3916L156.72 39.0957L158.037 39.1147L159.354 39.1333L159.354 27.9097L159.354 16.686L158.871 16.686L158.388 16.686L158.388 26.1816L158.388 35.6772L158.224 35.6772L158.061 35.6772L150.103 26.1816L142.145 16.686L139.458 16.686L136.772 16.686L136.772 27.9082ZM175.121 16.7686L175.05 16.8584L168.685 27.8936L162.318 38.9282L162.278 39.0322L162.238 39.1362L162.81 39.1162L163.381 39.0957L165.874 34.7988L168.367 30.502L174.062 30.5171L179.755 30.5322L182.238 34.8315L184.722 39.1304L186.606 39.1304L188.491 39.1304L187.98 38.25L187.469 37.3691L181.496 27.0449L175.524 16.7202L175.358 16.6997L175.192 16.6787L175.121 16.7686ZM201.115 17.0381L200.948 17.4111L195.897 28.2354L190.846 39.0591L190.846 39.0947L190.846 39.1304L191.416 39.1284L191.985 39.127L195.914 30.6689L199.843 22.2109L200.127 22.2119L200.411 22.2129L203.893 29.7412L207.375 37.27L207.425 37.2163L207.476 37.1621L210.95 29.6831L214.425 22.2041L214.697 22.2246L214.97 22.2451L218.887 30.6704L222.805 39.0957L224.58 39.1143L226.355 39.1328L226.332 39.0713L226.309 39.0093L221.095 27.8506L215.881 16.6924L215.837 16.7407L215.792 16.7896L212.39 24.1099L208.987 31.4302L208.804 31.8311L208.621 32.2319L205.01 24.5107L201.398 16.7896L201.34 16.7275L201.281 16.6655L201.115 17.0381ZM230.142 27.9082L230.142 39.1304L240.311 39.1294L250.479 39.1279L250.74 38.646L251 38.1636L242.193 38.1636L233.387 38.1636L233.387 31.1196L233.387 24.0752L239.424 24.0752L245.461 24.0752L245.708 23.6323L245.956 23.1895L245.956 23.1489L245.956 23.1084L239.672 23.1084L233.387 23.1084L233.387 20.3804L233.387 17.6528L241.288 17.6528L249.19 17.6528L249.438 17.21L249.686 16.7671L249.686 16.7266L249.686 16.686L239.913 16.686L230.142 16.686L230.142 27.9082ZM122.166 17.7134L122.856 17.8677L123.479 18.0796L124.1 18.2915L124.651 18.5684L125.203 18.8452L125.72 19.1938L126.236 19.542L126.851 20.1343L127.465 20.7261L127.898 21.3027L128.332 21.8794L128.678 22.5459L129.023 23.2119L129.266 23.8682L129.508 24.5244L129.685 25.3184L129.86 26.1128L129.94 26.9067L130.021 27.7012L129.979 28.4976L129.938 29.2939L129.801 30.0933L129.665 30.8931L129.446 31.5762L129.228 32.2588L128.958 32.8418L128.688 33.4243L128.227 34.1191L127.765 34.814L127.141 35.4375L126.517 36.061L125.879 36.4868L125.241 36.9126L124.67 37.1841L124.099 37.4556L123.443 37.6655L122.787 37.875L122.267 37.9824L121.746 38.0898L121.127 38.1606L120.509 38.2314L116.9 38.2319L113.292 38.2324L113.292 27.8696L113.292 17.5068L117.384 17.5327L121.476 17.5591L122.166 17.7134ZM14.2754 17.8477L14.6709 18.0068L14.8779 18.2573L15.084 18.5083L15.2002 18.8228L15.3154 19.1377L15.3467 20.3862L15.3789 21.6348L15.2949 22.041L15.21 22.4478L14.9902 22.6675L14.7705 22.8872L14.498 22.9766L14.2246 23.0664L9.23535 23.0913L4.24609 23.1157L4.24609 20.3804L4.24609 17.645L9.0625 17.667L13.8799 17.6885L14.2754 17.8477ZM41.6768 17.7236L42.1943 17.791L42.5049 17.9502L42.8154 18.1099L43.0225 18.5146L43.2295 18.9199L43.2549 20.2026L43.2803 21.4854L43.1973 21.9546L43.1133 22.4233L42.9463 22.6216L42.7793 22.8198L42.4521 22.9453L42.125 23.0708L35.6855 23.0928L29.2451 23.1143L29.2451 20.3838L29.2451 17.6528L35.2021 17.6548L41.1582 17.6572L41.6768 17.7236ZM66.1689 25.3184L68.54 29.4272L63.4873 29.4453L58.4355 29.4629L58.4082 29.4346L58.3799 29.4067L60.6016 25.5498L62.8232 21.6929L62.9922 21.4302L63.1611 21.1675L63.4795 21.1885L63.7988 21.2095L66.1689 25.3184ZM174.506 21.4336L174.673 21.6929L176.895 25.5488L179.116 29.4053L179.088 29.4341L179.059 29.4629L174.009 29.4453L168.958 29.4272L171.066 25.7671L173.175 22.1069L173.45 21.6411L173.726 21.1748L174.032 21.1748L174.339 21.1748L174.506 21.4336ZM14.4668 24.144L15.0537 24.2114L15.4678 24.3169L15.8828 24.4229L16.376 24.6636L16.8691 24.9043L17.2598 25.2949L17.6494 25.6851L17.9238 26.2505L18.1973 26.8164L18.332 27.4312L18.4658 28.0464L18.5381 28.937L18.6104 29.8271L18.6104 31.0776L18.6104 32.3281L18.5391 33.2534L18.4688 34.1792L18.332 34.8076L18.1953 35.4355L17.9268 35.9966L17.6582 36.5571L17.2861 36.9287L16.9141 37.3003L16.502 37.5186L16.0898 37.7368L15.6064 37.8804L15.123 38.0239L14.501 38.0933L13.8799 38.1626L9.0625 38.1631L4.24609 38.1636L4.24609 31.1196L4.24609 24.0752L9.0625 24.0757L13.8799 24.0767L14.4668 24.144Z" fill="#000000" fill-opacity="1.000000" fill-rule="evenodd"/>
	<path id="BRANDNAME (Traced)" d="M200.042 16.9883L200.035 17.0029L194.991 27.8125L189.846 38.8374L189.846 39.4722L188.845 37.7476L188.334 36.8672L182.362 26.5439L176.141 15.79L175.482 15.7075L174.757 15.6167L174.337 16.1484L174.221 16.2959L174.185 16.3589L167.818 27.3936L161.412 38.4966L161.345 38.6743L160.763 40.189L162.845 40.1152L163.969 40.0757L166.739 35.3008L168.942 31.5039L174.059 31.5171L179.177 31.5308L181.373 35.3315L184.145 40.1304L189.846 40.1304L189.846 40.1333L191.419 40.1284L192.625 40.125L196.821 31.0898L200.125 23.9771L202.985 30.1611L207.091 39.0391L208.156 37.8984L208.315 37.729L211.857 30.1045L214.688 24.0117L217.98 31.0923L222.163 40.0894L224.569 40.1143L227.81 40.1479L227.267 38.7163L227.23 38.6196L222.001 27.4277L216.153 14.9136L215.099 16.0659L214.95 16.2285L211.482 23.6885L208.615 29.8584L205.915 24.0869L202.236 16.2207L202.068 16.0425L200.98 14.8872L200.202 16.6304L200.042 16.9883ZM209.168 31.041L208.987 31.4302L208.804 31.8311L208.621 32.2319L208.064 31.0425L205.01 24.5107L201.87 17.7988L201.398 16.7896L201.34 16.7275L201.281 16.6655L201.181 16.8911L201.115 17.0381L201.102 17.0688L200.948 17.4111L200.767 17.7998L195.897 28.2354L191.28 38.1289L190.846 39.0591L190.846 39.1304L190.847 39.1304L190.997 39.1299L191.846 39.1274L191.918 39.127L191.985 39.127L195.914 30.6689L199.575 22.7876L199.687 22.5479L199.843 22.2109L200.127 22.2119L200.411 22.2129L200.565 22.5464L200.677 22.7881L203.893 29.7412L206.85 36.1353L207.21 36.9131L207.283 37.0728L207.375 37.27L207.425 37.2163L207.476 37.1621L207.952 36.1362L210.95 29.6831L214.137 22.8257L214.251 22.5796L214.425 22.2041L214.697 22.2246L214.97 22.2451L215.095 22.5156L215.239 22.8252L218.887 30.6704L222.805 39.0957L224.58 39.1143L225.257 39.1211L225.994 39.1289L226.051 39.1294L226.355 39.1328L226.332 39.0713L226.309 39.0093L225.896 38.1279L221.095 27.8506L216.412 17.8286L216.026 17.0034L215.964 16.8691L215.881 16.6924L215.881 16.6924L215.837 16.7407L215.792 16.7896L215.309 17.8296L212.39 24.1099L209.168 31.041ZM179.755 30.5322L182.238 34.8315L184.722 39.1304L188.491 39.1304L187.98 38.25L187.911 38.1304L187.469 37.3691L181.496 27.0449L175.908 17.3853L175.905 17.3784L175.881 17.3379L175.76 17.1279L175.524 16.7202L175.358 16.6997L175.192 16.6787L175.121 16.7686L175.05 16.8584L175.05 16.8584L174.933 17.0625L174.75 17.3794L172.396 21.4595L170.924 24.0117L168.685 27.8936L162.786 38.1162L162.318 38.9282L162.278 39.0322L162.238 39.1362L162.652 39.1216L162.808 39.1162L162.81 39.1162L163.376 39.0962L163.381 39.0957L165.874 34.7988L168.367 30.502L174.062 30.5171L179.755 30.5322ZM179.017 29.4629L179.059 29.4629L179.088 29.4341L179.116 29.4053L179.06 29.3062L178.573 28.4609L176.895 25.5488L174.673 21.6929L174.506 21.4336L174.339 21.1748L173.726 21.1748L173.45 21.6411L173.263 21.9585L173.175 22.1069L171.769 24.5483L171.066 25.7671L169.532 28.4297L168.958 29.4272L170.109 29.4316L174.009 29.4453L177.994 29.459L179.017 29.4629ZM177.416 28.457L176.028 26.0483L174.043 22.603L174.041 22.6064L171.933 26.2666L170.685 28.4336L174.012 28.4453L177.416 28.457ZM109.046 27.9043L109.046 40.1304L120.913 40.1304L121.847 40.021L122.77 39.9131L123.493 39.7588L124.204 39.6069L124.963 39.3896L125.739 39.1665L126.53 38.8433L127.309 38.5254L127.709 38.3228L128.106 38.1211L128.656 37.7896L129.214 37.4531L129.757 37.0532L130.314 36.6426L130.917 36.0684L131.525 35.4873L132.016 34.8604L132.505 34.2344L132.867 33.6025L133.224 32.9819L133.497 32.3408L133.777 31.6846L133.966 30.9556L134.151 30.2373L134.245 29.4941L134.34 28.7363L134.298 27.4722L134.256 26.1973L134.094 25.4404L133.937 24.708L133.701 24.0396L133.466 23.3726L133.16 22.7637L132.854 22.1523L132.395 21.4766L131.92 20.7764L131.092 19.9492L130.272 19.1309L129.548 18.6157L128.828 18.103L127.652 17.5186L126.489 16.9395L125.701 16.6694L124.931 16.4053L124.056 16.1963L123.193 15.9902L122.434 15.8638L121.63 15.729L115.8 15.7036L109.046 15.6743L109.046 27.9043ZM0 27.9053L0 40.1304L14.9023 40.1304L15.709 40.0117L16.5283 39.8911L17.3564 39.6167L18.2041 39.3364L18.8945 38.9292L19.5918 38.5186L20.2207 37.9224L20.8369 37.3369L21.1875 36.8433L21.5264 36.3657L21.8369 35.7446L22.1484 35.1211L22.3486 34.4849L22.542 33.8711L22.6748 33.2046L22.8154 32.4951L22.8154 31.1187L22.8145 29.752L22.6738 28.9731L22.54 28.2324L22.3564 27.5967L22.1641 26.9321L21.8242 26.2134L21.4814 25.4868L21.1211 24.9829L20.7559 24.4702L20.1602 23.9141L19.5312 23.3267L18.752 22.9404L18.7373 22.9326L18.8457 22.7812L19.1045 22.4194L19.2842 22.0654L19.501 21.6372L19.5869 21.0879L19.668 20.5674L19.6006 19.8901L19.5342 19.2305L19.3867 18.7886L19.2344 18.3306L18.8994 17.8115L18.5371 17.251L18.0244 16.8638L17.5605 16.5137L17.0518 16.2886L16.5762 16.0786L15.9404 15.9092L15.2549 15.7266L8.06445 15.7036L0 15.6772L0 27.9053ZM17.9443 23.6558L17.6602 23.5146L17.0596 23.3931L16.46 23.2715L16.7354 23.189L17.0117 23.106L17.79 22.5205L17.8184 22.4995L18.0322 22.1997L18.2461 21.8999L18.3916 21.6133L18.5371 21.3262L18.5986 20.9331L18.6602 20.5396L18.6055 19.9902L18.5498 19.4409L18.4375 19.1035L18.3262 18.7666L18.0596 18.3545L17.793 17.9424L17.4219 17.6616L17.0508 17.3818L16.6475 17.2031L16.2432 17.0244L15.6836 16.8755L15.123 16.7261L14.1592 16.7231L8.06152 16.7036L3.24609 16.6875L1 16.6802L1 39.1304L2 39.1304L3.24609 39.1304L14.8291 39.1304L15.5625 39.0225L16.2969 38.9141L17.042 38.6675L17.7881 38.4209L18.3867 38.0679L18.9863 37.7148L19.5322 37.1968L20.0781 36.6787L20.3721 36.2642L20.666 35.8501L20.9424 35.2974L21.2178 34.7451L21.3955 34.1841L21.5723 33.6226L21.6943 33.0098L21.8154 32.397L21.8154 31.1196L21.8145 29.8418L21.6895 29.1514L21.5645 28.4604L21.3955 27.8735L21.2256 27.2866L20.9209 26.6406L20.6152 25.9951L20.3076 25.564L20 25.1323L19.4775 24.645L18.9551 24.1572L18.3076 23.8359L17.9443 23.6558ZM13.9639 17.7227L13.8799 17.6885L9.0625 17.667L5.24609 17.6494L4.24609 17.645L4.24609 23.1157L4.24609 23.1157L5.24609 23.1108L9.23535 23.0913L12.2285 23.0762L14.2246 23.0664L14.498 22.9766L14.7705 22.8872L14.9902 22.6675L15.21 22.4478L15.2949 22.041L15.3789 21.6348L15.3467 20.3862L15.3154 19.1377L15.2002 18.8228L15.084 18.5083L14.8779 18.2573L14.6709 18.0068L14.2754 17.8477L13.9639 17.7227ZM14.0615 18.8398L13.9023 18.7754L13.6836 18.6875L9.05859 18.667L5.24609 18.6494L5.24609 22.1108L9.23047 22.0913L14.0625 22.0669L14.1855 22.0269L14.2324 22.0112L14.2832 21.9604L14.292 21.9517L14.3154 21.8379L14.377 21.5444L14.3477 20.4116L14.3193 19.3276L14.2607 19.167L14.2041 19.0127L14.1064 18.8936L14.0615 18.8398ZM12.2305 24.0762L9.0625 24.0757L5.24609 24.0752L4.24609 24.0752L4.24609 24.0771L4.24609 24.1157L4.24609 25.0752L4.24609 38.1636L4.2627 38.1636L5.24609 38.1636L9.0625 38.1631L13.8799 38.1626L14.168 38.1304L14.501 38.0933L15.123 38.0239L15.6064 37.8804L16.0898 37.7368L16.502 37.5186L16.9141 37.3003L17.2861 36.9287L17.6582 36.5571L17.9268 35.9966L18.1953 35.4355L18.332 34.8076L18.4688 34.1792L18.5391 33.2534L18.6104 32.3281L18.6104 31.0776L18.6104 29.8271L18.5381 28.937L18.4658 28.0464L18.332 27.4312L18.1973 26.8164L17.9238 26.2505L17.6494 25.6851L17.2598 25.2949L16.8691 24.9043L16.376 24.6636L15.8828 24.4229L15.4678 24.3169L15.0537 24.2114L14.4668 24.144L13.8799 24.0767L12.2305 24.0762ZM13.8223 25.0762L9.0625 25.0757L5.24609 25.0752L5.24609 37.1636L9.0625 37.1631L13.8242 37.1626L14.3906 37.0996L14.9238 37.04L15.3213 36.9219L15.71 36.8062L16.0342 36.6343L16.3145 36.4868L16.5801 36.2212L16.8301 35.9707L17.0254 35.5645L17.2432 35.1089L17.3545 34.5952L17.4766 34.0342L17.542 33.1777L17.6104 32.29L17.6104 31.0776L17.6104 29.8677L17.541 29.0176L17.4746 28.1938L17.3545 27.6445L17.2461 27.145L17.0234 26.6865L16.8232 26.2729L16.5527 26.002L16.2803 25.7295L15.9375 25.562L15.5361 25.3662L15.2207 25.2861L14.8721 25.1973L14.3525 25.1372L13.8223 25.0762ZM25 27.9062L25 40.1304L30.2451 40.1304L30.2451 25.0791L32.6328 25.0918L35.4502 25.1069L39.4785 32.1182L44.0811 40.1304L49.8447 40.1304L49.2871 38.6763L49.2217 38.5073L44.8955 31.0332L41.4463 25.0747L42.8223 25.0747L43.5527 24.9639L44.2832 24.853L44.8047 24.6914L45.3652 24.5171L45.8799 24.2124L46.4219 23.8921L46.791 23.4907L47.1631 23.0859L47.4238 22.5337L47.6738 22.0039L47.7676 21.5068L47.8564 21.0415L47.8545 20.5239L47.8535 19.998L47.7344 19.439L47.6104 18.8525L47.3799 18.3989L47.1621 17.9722L46.8809 17.6187L46.585 17.2476L46.127 16.8999L45.6807 16.5615L45.1465 16.3174L44.6367 16.084L43.9873 15.9106L43.2939 15.7251L34.583 15.7031L25 15.6792L25 27.9062ZM40.291 25.0752L39.7432 24.1284L39.7432 24.0752L39.7441 24.0752L39.835 24.0752L40.8672 24.0752L40.918 24.0752L41.2451 24.0747L42.7471 24.0747L43.4033 23.9751L44.0586 23.8755L44.5078 23.7363L44.957 23.5972L45.3711 23.3521L45.7852 23.1069L46.0547 22.814L46.3232 22.5215L46.5195 22.1069L46.7148 21.6919L46.7852 21.3203L46.8555 20.9487L46.8545 20.5264L46.8535 20.1045L46.7568 19.6465L46.6592 19.1885L46.4883 18.8521L46.3174 18.5161L46.0996 18.2422L45.8809 17.9688L45.5225 17.6968L45.1641 17.4248L44.7305 17.2266L44.2969 17.0283L43.7295 16.8765L43.1611 16.7246L41.7197 16.7212L34.5801 16.7031L28.2451 16.6875L27 16.6841L26 16.6816L26 39.1304L27 39.1304L28.2451 39.1304L29.2451 39.1304L29.2451 24.0742L30.2451 24.0791L32.6387 24.0918L33.9121 24.0986L36.0312 24.1099L40.3457 31.6201L44.6602 39.1304L48.3896 39.1304L48.3535 39.0347L48.3164 38.9395L47.8486 38.1304L44.0293 31.5342L40.291 25.0752ZM38.7432 23.0825L40.916 23.0752L42.125 23.0708L42.4521 22.9453L42.7793 22.8198L42.9463 22.6216L43.1133 22.4233L43.1973 21.9546L43.2803 21.4854L43.2549 20.2026L43.2295 18.9199L43.0225 18.5146L42.8154 18.1099L42.5049 17.9502L42.1943 17.791L41.6768 17.7236L41.6543 17.7212L41.1582 17.6572L35.2021 17.6548L30.2451 17.6533L29.2451 17.6528L29.2451 17.6899L29.2451 18.6528L29.2451 23.1143L30.2451 23.1113L33.9131 23.0986L35.6855 23.0928L38.7432 23.0825ZM30.2451 22.1113L35.6816 22.0928L41.9385 22.0713L42.0938 22.0117L42.1768 21.98L42.2129 21.7788L42.2793 21.4067L42.2559 20.2227L42.2344 19.1699L42.1318 18.9697L42.0723 18.8521L42.0479 18.8398L41.8926 18.7603L41.5488 18.7158L41.0938 18.6572L35.2012 18.6548L30.2451 18.6533L30.2451 22.1113ZM57.3135 27.2456L50.9219 38.3164L50.916 38.3271L50.8271 38.4893L49.9326 40.1304L53.3506 40.1304L56.1475 35.3164L58.3662 31.498L68.5703 31.498L70.7656 35.2974L73.5352 40.0903L75.9863 40.1143L79.3096 40.1465L78.792 38.7266L78.7383 38.5791L72.2373 27.3442L65.4922 15.6865L64.7412 15.686L63.9893 15.6855L57.3135 27.2456ZM69.1475 30.498L71.6309 34.7969L74.1152 39.0957L75.9961 39.1143L76.7422 39.1216L77.4883 39.1289L77.6123 39.1299L77.876 39.1328L77.8525 39.0684L77.8291 39.0044L77.3213 38.127L71.3721 27.8452L65.3184 17.3828L65.0898 16.9883L64.915 16.686L64.7402 16.686L64.5664 16.686L64.3906 16.9897L64.1631 17.3833L62.0332 21.0732L59.2803 25.8398L58.1797 27.7456L52.1836 38.1304L51.7939 38.8057L51.7051 38.9683L51.6162 39.1304L52.7744 39.1304L55.2832 34.814L57.791 30.498L69.1475 30.498ZM67.9639 28.4297L68.54 29.4272L67.3877 29.4316L63.4873 29.4453L59.5039 29.459L58.4766 29.4629L58.4355 29.4629L58.4082 29.4346L58.3799 29.4067L58.4355 29.3101L58.9248 28.4609L60.1426 26.3472L60.6016 25.5498L62.8232 21.6929L62.8867 21.5938L62.9922 21.4302L63.1611 21.1675L63.4795 21.1885L63.7988 21.2095L66.1689 25.3184L67.9639 28.4297ZM66.8115 28.4336L65.3027 25.8179L63.4502 22.6074L61.4678 26.0488L60.0811 28.457L63.4844 28.4453L66.8115 28.4336ZM80.3857 27.9082L80.3857 40.1304L83.4219 40.1304L83.4219 19.3359L91.5713 29.0347L100.895 40.1304L104.969 40.1304L104.969 15.686L101.933 15.686L101.933 33.2383L95.4805 25.5396L87.2227 15.686L80.3857 15.686L80.3857 27.9082ZM102.933 34.4316L102.933 35.6772L102.672 35.6772L101.933 34.7954L94.7139 26.1816L86.7559 16.686L82.3857 16.686L81.4219 16.686L81.3857 16.686L81.3857 39.1304L82.3857 39.1304L82.4219 39.1304L82.4219 17.6528L83.3135 17.6528L83.3418 17.686L83.4219 17.7817L101.36 39.1304L103.969 39.1304L103.969 16.686L103.933 16.686L102.969 16.686L102.933 16.686L102.933 34.4316ZM135.772 27.9082L135.772 40.1304L138.808 40.1304L138.808 19.3335L146.96 29.0347L156.249 40.0894L158.023 40.1147L160.354 40.1475L160.354 15.686L157.388 15.686L157.388 33.3184L150.869 25.5396L142.611 15.686L135.772 15.686L135.772 27.9082ZM158.061 35.6772L157.388 34.875L150.103 26.1816L142.145 16.686L136.772 16.686L136.772 39.1304L136.808 39.1304L137.772 39.1304L137.808 39.1304L137.808 17.647L137.808 17.6465L138.27 17.667L138.7 17.686L138.73 17.6875L156.72 39.0957L158.037 39.1147L158.354 39.1191L159.354 39.1333L159.354 16.686L158.388 16.686L158.388 35.6772L158.354 35.6772L158.061 35.6772ZM229.142 27.9082L229.142 40.1304L230.142 40.1304L240.311 40.1294L251.076 40.1279L251.62 39.1206L252.676 37.1636L234.387 37.1636L234.387 25.0752L246.047 25.0752L246.581 24.1206L246.956 23.4502L246.956 22.1084L234.387 22.1084L234.387 18.6528L249.776 18.6528L250.311 17.6982L250.686 17.0278L250.686 15.686L229.142 15.686L229.142 27.9082ZM249.686 16.7671L249.686 16.686L249.54 16.686L231.142 16.686L230.142 16.686L230.142 39.1304L231.142 39.1304L232.387 39.1299L240.311 39.1294L250.479 39.1279L250.74 38.646L251 38.1636L233.387 38.1636L233.387 24.0752L234.387 24.0752L245.461 24.0752L245.708 23.6323L245.956 23.1895L245.956 23.1084L245.811 23.1084L233.387 23.1084L233.387 17.6528L234.387 17.6528L249.19 17.6528L249.438 17.21L249.686 16.7671ZM112.292 16.6885L111.046 16.6831L110.046 16.6787L110.046 39.1304L111.046 39.1304L112.292 39.1304L120.854 39.1304L121.73 39.0278L122.607 38.9253L123.146 38.8105L123.284 38.7808L123.962 38.6362L124.687 38.4282L125.412 38.2202L126.152 37.9175L126.893 37.6152L127.257 37.4307L127.622 37.2461L128.657 36.6206L129.164 36.248L129.67 35.875L130.227 35.3447L130.782 34.814L131.228 34.2446L131.673 33.6748L132 33.105L132.327 32.5352L132.577 31.9482L132.828 31.3613L132.998 30.7051L133.167 30.0488L133.252 29.3696L133.338 28.6904L133.299 27.5054L133.26 26.3198L133.116 25.6499L132.973 24.98L132.758 24.3726L132.544 23.7646L131.989 22.6597L131.567 22.0381L131.146 21.4165L129.624 19.897L128.969 19.4302L128.312 18.9634L127.207 18.4136L126.103 17.8638L125.377 17.6152L124.652 17.3667L124.1 17.2349L123.823 17.1689L122.994 16.9707L122.27 16.8501L121.544 16.729L115.795 16.7036L112.292 16.6885ZM121.541 17.5737L121.476 17.5591L121.406 17.5586L117.384 17.5327L114.292 17.5132L113.292 17.5068L113.292 38.2324L113.304 38.2324L114.292 38.2324L116.9 38.2319L120.509 38.2314L120.746 38.2041L120.854 38.1919L121.127 38.1606L121.746 38.0898L122.267 37.9824L122.4 37.9551L122.491 37.936L122.787 37.875L122.889 37.8428L123.443 37.6655L124.099 37.4556L124.67 37.1841L125.241 36.9126L125.879 36.4868L126.517 36.061L127.141 35.4375L127.765 34.814L128.227 34.1191L128.688 33.4243L128.958 32.8418L129.228 32.2588L129.446 31.5762L129.665 30.8931L129.801 30.0933L129.938 29.2939L129.979 28.4976L130.021 27.7012L129.94 26.9067L129.86 26.1128L129.685 25.3184L129.508 24.5244L129.266 23.8682L129.023 23.2119L128.678 22.5459L128.332 21.8794L127.898 21.3027L127.465 20.7261L126.851 20.1343L126.236 19.542L125.72 19.1938L125.203 18.8452L124.651 18.5684L124.1 18.2915L123.822 18.1968L123.479 18.0796L122.856 17.8677L122.846 17.8652L122.784 17.8516L122.166 17.7134L121.541 17.5737ZM121.361 18.5581L121.947 18.6895L122.585 18.832L123.155 19.0259L123.712 19.2158L124.203 19.4619L124.697 19.71L125.16 20.0225L125.605 20.3228L126.157 20.854L126.714 21.3906L127.099 21.9033L127.482 22.4141L127.79 23.0063L128.106 23.6172L128.327 24.2148L128.547 24.8071L128.708 25.5352L128.871 26.2715L128.945 27.0068L129.018 27.7256L128.98 28.4458L128.942 29.1836L128.815 29.9248L128.69 30.6553L128.493 31.271L128.294 31.8955L128.05 32.4224L127.813 32.9351L127.395 33.5654L126.987 34.1772L126.434 34.73L125.879 35.2842L125.323 35.6553L124.747 36.0405L124.241 36.2808L123.73 36.5234L123.139 36.7129L122.533 36.9062L122.064 37.0029L121.588 37.1011L121.014 37.167L120.451 37.2314L116.9 37.2319L114.292 37.2324L114.292 18.5132L117.377 18.5327L121.361 18.5581Z" fill="#FFFFFF" fill-opacity="1.000000" fill-rule="evenodd"/>
</svg>
